<svg width="48" height="49" viewBox="0 0 48 49" fill="none" xmlns="http://www.w3.org/2000/svg">
<g opacity="0.6">
<g opacity="0.6">
<ellipse opacity="0.3" cx="3.79141" cy="3.47297" rx="3.79141" ry="3.47297" transform="matrix(0.0224929 0.999747 -0.999641 0.0268096 47.1868 40.4341)" fill="#9C8DF0"/>
<ellipse opacity="0.3" cx="3.79141" cy="3.47297" rx="3.79141" ry="3.47297" transform="matrix(0.0224929 0.999747 -0.999641 0.0268096 47.1868 30.4834)" fill="#9C8DF0"/>
<ellipse opacity="0.3" cx="3.79141" cy="3.47297" rx="3.79141" ry="3.47297" transform="matrix(0.0224929 0.999747 -0.999641 0.0268096 47.1868 20.5325)" fill="#9C8DF0"/>
<ellipse opacity="0.3" cx="3.79141" cy="3.47297" rx="3.79141" ry="3.47297" transform="matrix(0.0224925 -0.999747 -0.999641 -0.0268092 47.0425 18.3486)" fill="#9C8DF0"/>
<ellipse opacity="0.3" cx="3.79141" cy="3.47297" rx="3.79141" ry="3.47297" transform="matrix(0.0224925 -0.999747 -0.999641 -0.0268092 47.1868 8.39795)" fill="#9C8DF0"/>
<ellipse opacity="0.3" cx="3.79141" cy="3.47297" rx="3.79141" ry="3.47297" transform="matrix(0.0224929 0.999747 -0.999641 0.0268096 37.071 40.4343)" fill="#9C8DF0"/>
<ellipse opacity="0.3" cx="3.79141" cy="3.47297" rx="3.79141" ry="3.47297" transform="matrix(0.0224929 0.999747 -0.999641 0.0268096 37.071 30.4834)" fill="#9C8DF0"/>
<ellipse opacity="0.3" cx="3.79141" cy="3.47297" rx="3.79141" ry="3.47297" transform="matrix(0.0224929 0.999747 -0.999641 0.0268096 37.071 20.5322)" fill="#9C8DF0"/>
<ellipse opacity="0.3" cx="3.79141" cy="3.47297" rx="3.79141" ry="3.47297" transform="matrix(0.0224925 -0.999747 -0.999641 -0.0268092 36.9268 18.3486)" fill="#9C8DF0"/>
<ellipse opacity="0.3" cx="3.79141" cy="3.47297" rx="3.79141" ry="3.47297" transform="matrix(0.0224929 0.999747 -0.999641 0.0268096 27.2438 40.4341)" fill="#9C8DF0"/>
<ellipse opacity="0.3" cx="3.79141" cy="3.47297" rx="3.79141" ry="3.47297" transform="matrix(0.0224929 0.999747 -0.999641 0.0268096 27.2438 30.4834)" fill="#9C8DF0"/>
<ellipse opacity="0.3" cx="3.79141" cy="3.47297" rx="3.79141" ry="3.47297" transform="matrix(0.0224929 0.999747 -0.999641 0.0268096 27.2438 20.5325)" fill="#9C8DF0"/>
<ellipse opacity="0.3" cx="3.79141" cy="3.47297" rx="3.79141" ry="3.47297" transform="matrix(0.0224929 0.999747 -0.999641 0.0268096 17.1281 40.4343)" fill="#9C8DF0"/>
<ellipse opacity="0.3" cx="3.79141" cy="3.47297" rx="3.79141" ry="3.47297" transform="matrix(0.0224929 0.999747 -0.999641 0.0268096 17.1281 30.4834)" fill="#9C8DF0"/>
<ellipse opacity="0.3" cx="3.79141" cy="3.47297" rx="3.79141" ry="3.47297" transform="matrix(0.0224929 0.999747 -0.999641 0.0268096 7.15662 40.4343)" fill="#9C8DF0"/>
</g>
</g>
</svg>
