<svg width="48" height="48" viewBox="0 0 48 48" fill="none" xmlns="http://www.w3.org/2000/svg">
<g opacity="0.6">
<g opacity="0.6">
<ellipse opacity="0.3" cx="3.79141" cy="3.47297" rx="3.79141" ry="3.47297" transform="matrix(-0.999747 0.0224929 -0.0268096 -0.999641 7.76726 46.9737)" fill="#9C8DF0"/>
<ellipse opacity="0.3" cx="3.79141" cy="3.47297" rx="3.79141" ry="3.47297" transform="matrix(-0.999747 0.0224929 -0.0268096 -0.999641 17.7181 46.9736)" fill="#9C8DF0"/>
<ellipse opacity="0.3" cx="3.79141" cy="3.47297" rx="3.79141" ry="3.47297" transform="matrix(-0.999747 0.0224929 -0.0268096 -0.999641 27.6689 46.9736)" fill="#9C8DF0"/>
<ellipse opacity="0.3" cx="3.79141" cy="3.47297" rx="3.79141" ry="3.47297" transform="matrix(0.999747 0.0224925 0.0268092 -0.999641 29.8528 46.8294)" fill="#9C8DF0"/>
<ellipse opacity="0.3" cx="3.79141" cy="3.47297" rx="3.79141" ry="3.47297" transform="matrix(0.999747 0.0224925 0.0268092 -0.999641 39.8035 46.9736)" fill="#9C8DF0"/>
<ellipse opacity="0.3" cx="3.79141" cy="3.47297" rx="3.79141" ry="3.47297" transform="matrix(-0.999747 0.0224929 -0.0268096 -0.999641 7.76713 36.8579)" fill="#9C8DF0"/>
<ellipse opacity="0.3" cx="3.79141" cy="3.47297" rx="3.79141" ry="3.47297" transform="matrix(-0.999747 0.0224929 -0.0268096 -0.999641 17.7181 36.8579)" fill="#9C8DF0"/>
<ellipse opacity="0.3" cx="3.79141" cy="3.47297" rx="3.79141" ry="3.47297" transform="matrix(-0.999747 0.0224929 -0.0268096 -0.999641 27.6691 36.8578)" fill="#9C8DF0"/>
<ellipse opacity="0.3" cx="3.79141" cy="3.47297" rx="3.79141" ry="3.47297" transform="matrix(0.999747 0.0224925 0.0268092 -0.999641 29.8528 36.7137)" fill="#9C8DF0"/>
<ellipse opacity="0.3" cx="3.79141" cy="3.47297" rx="3.79141" ry="3.47297" transform="matrix(-0.999747 0.0224929 -0.0268096 -0.999641 7.76726 27.0307)" fill="#9C8DF0"/>
<ellipse opacity="0.3" cx="3.79141" cy="3.47297" rx="3.79141" ry="3.47297" transform="matrix(-0.999747 0.0224929 -0.0268096 -0.999641 17.7181 27.0306)" fill="#9C8DF0"/>
<ellipse opacity="0.3" cx="3.79141" cy="3.47297" rx="3.79141" ry="3.47297" transform="matrix(-0.999747 0.0224929 -0.0268096 -0.999641 27.6689 27.0306)" fill="#9C8DF0"/>
<ellipse opacity="0.3" cx="3.79141" cy="3.47297" rx="3.79141" ry="3.47297" transform="matrix(-0.999747 0.0224929 -0.0268096 -0.999641 7.76713 16.9149)" fill="#9C8DF0"/>
<ellipse opacity="0.3" cx="3.79141" cy="3.47297" rx="3.79141" ry="3.47297" transform="matrix(-0.999747 0.0224929 -0.0268096 -0.999641 17.718 16.9149)" fill="#9C8DF0"/>
<ellipse opacity="0.3" cx="3.79141" cy="3.47297" rx="3.79141" ry="3.47297" transform="matrix(-0.999747 0.0224929 -0.0268096 -0.999641 7.76712 6.94345)" fill="#9C8DF0"/>
</g>
</g>
</svg>
