<svg width="49" height="48" viewBox="0 0 49 48" fill="none" xmlns="http://www.w3.org/2000/svg">
<g opacity="0.6">
<g opacity="0.6">
<ellipse opacity="0.3" cx="3.79141" cy="3.47297" rx="3.79141" ry="3.47297" transform="matrix(0.999726 -0.0234143 0.0277309 0.999615 40.7817 0.368896)" fill="#9C8DF0"/>
<ellipse opacity="0.3" cx="3.79141" cy="3.47297" rx="3.79141" ry="3.47297" transform="matrix(0.999726 -0.0234143 0.0277309 0.999615 30.8308 0.378174)" fill="#9C8DF0"/>
<ellipse opacity="0.3" cx="3.79141" cy="3.47297" rx="3.79141" ry="3.47297" transform="matrix(0.999726 -0.0234143 0.0277309 0.999615 20.8801 0.387207)" fill="#9C8DF0"/>
<ellipse opacity="0.3" cx="3.79141" cy="3.47297" rx="3.79141" ry="3.47297" transform="matrix(-0.999767 -0.0215711 -0.0258879 0.999665 18.6964 0.533691)" fill="#9C8DF0"/>
<ellipse opacity="0.3" cx="3.79141" cy="3.47297" rx="3.79141" ry="3.47297" transform="matrix(-0.999767 -0.0215711 -0.0258879 0.999665 8.74548 0.398438)" fill="#9C8DF0"/>
<ellipse opacity="0.3" cx="3.79141" cy="3.47297" rx="3.79141" ry="3.47297" transform="matrix(0.999726 -0.0234143 0.0277309 0.999615 40.7911 10.4846)" fill="#9C8DF0"/>
<ellipse opacity="0.3" cx="3.79141" cy="3.47297" rx="3.79141" ry="3.47297" transform="matrix(0.999726 -0.0234143 0.0277309 0.999615 30.8402 10.4939)" fill="#9C8DF0"/>
<ellipse opacity="0.3" cx="3.79141" cy="3.47297" rx="3.79141" ry="3.47297" transform="matrix(0.999726 -0.0234143 0.0277309 0.999615 20.8892 10.5032)" fill="#9C8DF0"/>
<ellipse opacity="0.3" cx="3.79141" cy="3.47297" rx="3.79141" ry="3.47297" transform="matrix(-0.999767 -0.0215711 -0.0258879 0.999665 18.7057 10.6494)" fill="#9C8DF0"/>
<ellipse opacity="0.3" cx="3.79141" cy="3.47297" rx="3.79141" ry="3.47297" transform="matrix(0.999726 -0.0234143 0.0277309 0.999615 40.8002 20.312)" fill="#9C8DF0"/>
<ellipse opacity="0.3" cx="3.79141" cy="3.47297" rx="3.79141" ry="3.47297" transform="matrix(0.999726 -0.0234143 0.0277309 0.999615 30.8492 20.3213)" fill="#9C8DF0"/>
<ellipse opacity="0.3" cx="3.79141" cy="3.47297" rx="3.79141" ry="3.47297" transform="matrix(0.999726 -0.0234143 0.0277309 0.999615 20.8986 20.3303)" fill="#9C8DF0"/>
<ellipse opacity="0.3" cx="3.79141" cy="3.47297" rx="3.79141" ry="3.47297" transform="matrix(0.999726 -0.0234143 0.0277309 0.999615 40.8096 30.4277)" fill="#9C8DF0"/>
<ellipse opacity="0.3" cx="3.79141" cy="3.47297" rx="3.79141" ry="3.47297" transform="matrix(0.999726 -0.0234143 0.0277309 0.999615 30.8586 30.4368)" fill="#9C8DF0"/>
<ellipse opacity="0.3" cx="3.79141" cy="3.47297" rx="3.79141" ry="3.47297" transform="matrix(0.999726 -0.0234143 0.0277309 0.999615 40.8187 40.3992)" fill="#9C8DF0"/>
</g>
</g>
</svg>
