<svg width="48" height="49" viewBox="0 0 48 49" fill="none" xmlns="http://www.w3.org/2000/svg">
<g opacity="0.6">
<g opacity="0.6">
<ellipse opacity="0.3" cx="3.79141" cy="3.47297" rx="3.79141" ry="3.47297" transform="matrix(-0.022493 -0.999747 0.999641 -0.0268097 0.383759 8.55409)" fill="#9C8DF0"/>
<ellipse opacity="0.3" cx="3.79141" cy="3.47297" rx="3.79141" ry="3.47297" transform="matrix(-0.022493 -0.999747 0.999641 -0.0268097 0.38385 18.505)" fill="#9C8DF0"/>
<ellipse opacity="0.3" cx="3.79141" cy="3.47297" rx="3.79141" ry="3.47297" transform="matrix(-0.022493 -0.999747 0.999641 -0.0268097 0.383789 28.4557)" fill="#9C8DF0"/>
<ellipse opacity="0.3" cx="3.79141" cy="3.47297" rx="3.79141" ry="3.47297" transform="matrix(-0.0224924 0.999747 0.999641 0.0268091 0.528046 30.6396)" fill="#9C8DF0"/>
<ellipse opacity="0.3" cx="3.79141" cy="3.47297" rx="3.79141" ry="3.47297" transform="matrix(-0.0224924 0.999747 0.999641 0.0268091 0.383812 40.5903)" fill="#9C8DF0"/>
<ellipse opacity="0.3" cx="3.79141" cy="3.47297" rx="3.79141" ry="3.47297" transform="matrix(-0.022493 -0.999747 0.999641 -0.0268097 10.4995 8.55396)" fill="#9C8DF0"/>
<ellipse opacity="0.3" cx="3.79141" cy="3.47297" rx="3.79141" ry="3.47297" transform="matrix(-0.022493 -0.999747 0.999641 -0.0268097 10.4996 18.505)" fill="#9C8DF0"/>
<ellipse opacity="0.3" cx="3.79141" cy="3.47297" rx="3.79141" ry="3.47297" transform="matrix(-0.022493 -0.999747 0.999641 -0.0268097 10.4996 28.456)" fill="#9C8DF0"/>
<ellipse opacity="0.3" cx="3.79141" cy="3.47297" rx="3.79141" ry="3.47297" transform="matrix(-0.0224924 0.999747 0.999641 0.0268091 10.6438 30.6396)" fill="#9C8DF0"/>
<ellipse opacity="0.3" cx="3.79141" cy="3.47297" rx="3.79141" ry="3.47297" transform="matrix(-0.022493 -0.999747 0.999641 -0.0268097 20.3268 8.55408)" fill="#9C8DF0"/>
<ellipse opacity="0.3" cx="3.79141" cy="3.47297" rx="3.79141" ry="3.47297" transform="matrix(-0.022493 -0.999747 0.999641 -0.0268097 20.3268 18.505)" fill="#9C8DF0"/>
<ellipse opacity="0.3" cx="3.79141" cy="3.47297" rx="3.79141" ry="3.47297" transform="matrix(-0.022493 -0.999747 0.999641 -0.0268097 20.3268 28.4557)" fill="#9C8DF0"/>
<ellipse opacity="0.3" cx="3.79141" cy="3.47297" rx="3.79141" ry="3.47297" transform="matrix(-0.022493 -0.999747 0.999641 -0.0268097 30.4425 8.55394)" fill="#9C8DF0"/>
<ellipse opacity="0.3" cx="3.79141" cy="3.47297" rx="3.79141" ry="3.47297" transform="matrix(-0.022493 -0.999747 0.999641 -0.0268097 30.4425 18.5048)" fill="#9C8DF0"/>
<ellipse opacity="0.3" cx="3.79141" cy="3.47297" rx="3.79141" ry="3.47297" transform="matrix(-0.022493 -0.999747 0.999641 -0.0268097 40.414 8.55394)" fill="#9C8DF0"/>
</g>
</g>
</svg>
