<svg width="67" height="410" viewBox="0 0 67 410" fill="none" xmlns="http://www.w3.org/2000/svg">
<path d="M1.968 197.52C2.992 196.635 3.79733 195.909 4.384 195.344C4.98133 194.768 5.47733 194.171 5.872 193.552C6.26667 192.933 6.464 192.315 6.464 191.696C6.464 191.056 6.30933 190.555 6 190.192C5.70133 189.829 5.22667 189.648 4.576 189.648C3.94667 189.648 3.456 189.851 3.104 190.256C2.76267 190.651 2.58133 191.184 2.56 191.856H0.8C0.832 190.64 1.19467 189.712 1.888 189.072C2.592 188.421 3.48267 188.096 4.56 188.096C5.72267 188.096 6.62933 188.416 7.28 189.056C7.94133 189.696 8.272 190.549 8.272 191.616C8.272 192.384 8.07467 193.125 7.68 193.84C7.296 194.544 6.832 195.179 6.288 195.744C5.75467 196.299 5.072 196.944 4.24 197.68L3.52 198.32H8.592V199.84H0.816V198.512L1.968 197.52ZM11.2024 197.52C12.2264 196.635 13.0317 195.909 13.6184 195.344C14.2157 194.768 14.7117 194.171 15.1064 193.552C15.501 192.933 15.6984 192.315 15.6984 191.696C15.6984 191.056 15.5437 190.555 15.2344 190.192C14.9357 189.829 14.461 189.648 13.8104 189.648C13.181 189.648 12.6904 189.851 12.3384 190.256C11.997 190.651 11.8157 191.184 11.7944 191.856H10.0344C10.0664 190.64 10.429 189.712 11.1224 189.072C11.8264 188.421 12.717 188.096 13.7944 188.096C14.957 188.096 15.8637 188.416 16.5144 189.056C17.1757 189.696 17.5064 190.549 17.5064 191.616C17.5064 192.384 17.309 193.125 16.9144 193.84C16.5304 194.544 16.0664 195.179 15.5224 195.744C14.989 196.299 14.3064 196.944 13.4744 197.68L12.7544 198.32H17.8264V199.84H10.0504V198.512L11.2024 197.52ZM19.0608 195.584C19.0608 194.677 19.2421 193.883 19.6048 193.2C19.9781 192.507 20.4901 191.973 21.1408 191.6C21.7914 191.227 22.5381 191.04 23.3808 191.04C24.4474 191.04 25.3274 191.296 26.0208 191.808C26.7248 192.309 27.1994 193.029 27.4448 193.968H25.4768C25.3168 193.531 25.0608 193.189 24.7088 192.944C24.3568 192.699 23.9141 192.576 23.3808 192.576C22.6341 192.576 22.0368 192.843 21.5888 193.376C21.1514 193.899 20.9328 194.635 20.9328 195.584C20.9328 196.533 21.1514 197.275 21.5888 197.808C22.0368 198.341 22.6341 198.608 23.3808 198.608C24.4368 198.608 25.1354 198.144 25.4768 197.216H27.4448C27.1888 198.112 26.7088 198.827 26.0048 199.36C25.3008 199.883 24.4261 200.144 23.3808 200.144C22.5381 200.144 21.7914 199.957 21.1408 199.584C20.4901 199.2 19.9781 198.667 19.6048 197.984C19.2421 197.291 19.0608 196.491 19.0608 195.584ZM39.9345 191.04C40.6278 191.04 41.2465 191.184 41.7905 191.472C42.3452 191.76 42.7772 192.187 43.0865 192.752C43.4065 193.317 43.5665 194 43.5665 194.8V200H41.7585V195.072C41.7585 194.283 41.5612 193.68 41.1665 193.264C40.7718 192.837 40.2332 192.624 39.5505 192.624C38.8678 192.624 38.3238 192.837 37.9185 193.264C37.5238 193.68 37.3265 194.283 37.3265 195.072V200H35.5185V195.072C35.5185 194.283 35.3212 193.68 34.9265 193.264C34.5318 192.837 33.9932 192.624 33.3105 192.624C32.6278 192.624 32.0838 192.837 31.6785 193.264C31.2838 193.68 31.0865 194.283 31.0865 195.072V200H29.2625V191.184H31.0865V192.192C31.3852 191.829 31.7638 191.547 32.2225 191.344C32.6812 191.141 33.1718 191.04 33.6945 191.04C34.3985 191.04 35.0278 191.189 35.5825 191.488C36.1372 191.787 36.5638 192.219 36.8625 192.784C37.1292 192.251 37.5452 191.829 38.1105 191.52C38.6758 191.2 39.2838 191.04 39.9345 191.04Z" fill="#8D9CF0"/>
<line x1="57.75" y1="2" x2="57.75" y2="410" stroke="#8D9CF0" stroke-width="1.5"/>
<line x1="57" y1="409.25" x2="67" y2="409.25" stroke="#8D9CF0" stroke-width="1.5"/>
<line x1="57" y1="1.25" x2="67" y2="1.25" stroke="#8D9CF0" stroke-width="1.5"/>
</svg>
