<svg width="267" height="46" viewBox="0 0 267 46" fill="none" xmlns="http://www.w3.org/2000/svg">
<path d="M110.72 8V6.336H114.048V18H112.208V8H110.72ZM116.33 15.568V14.192L121.706 6.48H123.914V13.984H125.402V15.568H123.914V18H122.122V15.568H116.33ZM122.202 8.336L118.426 13.984H122.202V8.336ZM126.545 13.584C126.545 12.6773 126.726 11.8827 127.089 11.2C127.462 10.5067 127.974 9.97333 128.625 9.6C129.276 9.22667 130.022 9.04 130.865 9.04C131.932 9.04 132.812 9.296 133.505 9.808C134.209 10.3093 134.684 11.0293 134.929 11.968H132.961C132.801 11.5307 132.545 11.1893 132.193 10.944C131.841 10.6987 131.398 10.576 130.865 10.576C130.118 10.576 129.521 10.8427 129.073 11.376C128.636 11.8987 128.417 12.6347 128.417 13.584C128.417 14.5333 128.636 15.2747 129.073 15.808C129.521 16.3413 130.118 16.608 130.865 16.608C131.921 16.608 132.62 16.144 132.961 15.216H134.929C134.673 16.112 134.193 16.8267 133.489 17.36C132.785 17.8827 131.91 18.144 130.865 18.144C130.022 18.144 129.276 17.9573 128.625 17.584C127.974 17.2 127.462 16.6667 127.089 15.984C126.726 15.2907 126.545 14.4907 126.545 13.584ZM147.419 9.04C148.112 9.04 148.731 9.184 149.275 9.472C149.83 9.76 150.262 10.1867 150.571 10.752C150.891 11.3173 151.051 12 151.051 12.8V18H149.243V13.072C149.243 12.2827 149.046 11.68 148.651 11.264C148.256 10.8373 147.718 10.624 147.035 10.624C146.352 10.624 145.808 10.8373 145.403 11.264C145.008 11.68 144.811 12.2827 144.811 13.072V18H143.003V13.072C143.003 12.2827 142.806 11.68 142.411 11.264C142.016 10.8373 141.478 10.624 140.795 10.624C140.112 10.624 139.568 10.8373 139.163 11.264C138.768 11.68 138.571 12.2827 138.571 13.072V18H136.747V9.184H138.571V10.192C138.87 9.82933 139.248 9.54667 139.707 9.344C140.166 9.14133 140.656 9.04 141.179 9.04C141.883 9.04 142.512 9.18933 143.067 9.488C143.622 9.78667 144.048 10.2187 144.347 10.784C144.614 10.2507 145.03 9.82933 145.595 9.52C146.16 9.2 146.768 9.04 147.419 9.04Z" fill="#8D9CF0"/>
<line x1="265" y1="36.75" x2="-3.27835e-08" y2="36.75" stroke="#8D9CF0" stroke-width="1.5"/>
<line x1="0.75" y1="36" x2="0.75" y2="46" stroke="#8D9CF0" stroke-width="1.5"/>
<line x1="265.75" y1="36" x2="265.75" y2="46" stroke="#8D9CF0" stroke-width="1.5"/>
</svg>
