<svg width="78" height="358" viewBox="0 0 78 358" fill="none" xmlns="http://www.w3.org/2000/svg">
<path d="M0.72 138V136.336H4.048V148H2.208V138H0.72ZM6.32975 145.568V144.192L11.7058 136.48H13.9138V143.984H15.4018V145.568H13.9138V148H12.1218V145.568H6.32975ZM12.2018 138.336L8.42575 143.984H12.2018V138.336ZM19.1531 145.808L17.2171 150.224H16.0331L17.1691 145.808H19.1531ZM22.4749 141.904C21.3655 141.349 20.8109 140.475 20.8109 139.28C20.8109 138.704 20.9549 138.176 21.2429 137.696C21.5309 137.216 21.9629 136.837 22.5389 136.56C23.1149 136.272 23.8189 136.128 24.6509 136.128C25.4722 136.128 26.1709 136.272 26.7469 136.56C27.3335 136.837 27.7709 137.216 28.0589 137.696C28.3469 138.176 28.4909 138.704 28.4909 139.28C28.4909 139.877 28.3362 140.405 28.0269 140.864C27.7282 141.312 27.3282 141.659 26.8269 141.904C27.4349 142.128 27.9149 142.496 28.2669 143.008C28.6189 143.509 28.7949 144.101 28.7949 144.784C28.7949 145.477 28.6189 146.091 28.2669 146.624C27.9149 147.157 27.4242 147.568 26.7949 147.856C26.1655 148.144 25.4509 148.288 24.6509 148.288C23.8509 148.288 23.1362 148.144 22.5069 147.856C21.8882 147.568 21.4029 147.157 21.0509 146.624C20.6989 146.091 20.5229 145.477 20.5229 144.784C20.5229 144.091 20.6989 143.493 21.0509 142.992C21.4029 142.491 21.8775 142.128 22.4749 141.904ZM26.7469 139.504C26.7469 138.907 26.5602 138.448 26.1869 138.128C25.8135 137.808 25.3015 137.648 24.6509 137.648C24.0109 137.648 23.5042 137.808 23.1309 138.128C22.7575 138.448 22.5709 138.912 22.5709 139.52C22.5709 140.053 22.7629 140.491 23.1469 140.832C23.5415 141.163 24.0429 141.328 24.6509 141.328C25.2589 141.328 25.7602 141.157 26.1549 140.816C26.5495 140.475 26.7469 140.037 26.7469 139.504ZM24.6509 142.704C23.9469 142.704 23.3709 142.88 22.9229 143.232C22.4855 143.573 22.2669 144.069 22.2669 144.72C22.2669 145.328 22.4802 145.824 22.9069 146.208C23.3335 146.581 23.9149 146.768 24.6509 146.768C25.3762 146.768 25.9469 146.576 26.3629 146.192C26.7895 145.808 27.0029 145.317 27.0029 144.72C27.0029 144.08 26.7842 143.584 26.3469 143.232C25.9202 142.88 25.3549 142.704 24.6509 142.704ZM30.342 143.584C30.342 142.677 30.5233 141.883 30.886 141.2C31.2593 140.507 31.7713 139.973 32.422 139.6C33.0727 139.227 33.8193 139.04 34.662 139.04C35.7287 139.04 36.6087 139.296 37.302 139.808C38.006 140.309 38.4807 141.029 38.726 141.968H36.758C36.598 141.531 36.342 141.189 35.99 140.944C35.638 140.699 35.1953 140.576 34.662 140.576C33.9153 140.576 33.318 140.843 32.87 141.376C32.4327 141.899 32.214 142.635 32.214 143.584C32.214 144.533 32.4327 145.275 32.87 145.808C33.318 146.341 33.9153 146.608 34.662 146.608C35.718 146.608 36.4167 146.144 36.758 145.216H38.726C38.47 146.112 37.99 146.827 37.286 147.36C36.582 147.883 35.7073 148.144 34.662 148.144C33.8193 148.144 33.0727 147.957 32.422 147.584C31.7713 147.2 31.2593 146.667 30.886 145.984C30.5233 145.291 30.342 144.491 30.342 143.584ZM51.2158 139.04C51.9091 139.04 52.5278 139.184 53.0718 139.472C53.6264 139.76 54.0584 140.187 54.3678 140.752C54.6878 141.317 54.8478 142 54.8478 142.8V148H53.0398V143.072C53.0398 142.283 52.8424 141.68 52.4478 141.264C52.0531 140.837 51.5144 140.624 50.8318 140.624C50.1491 140.624 49.6051 140.837 49.1998 141.264C48.8051 141.68 48.6078 142.283 48.6078 143.072V148H46.7998V143.072C46.7998 142.283 46.6024 141.68 46.2078 141.264C45.8131 140.837 45.2744 140.624 44.5918 140.624C43.9091 140.624 43.3651 140.837 42.9598 141.264C42.5651 141.68 42.3678 142.283 42.3678 143.072V148H40.5438V139.184H42.3678V140.192C42.6664 139.829 43.0451 139.547 43.5038 139.344C43.9624 139.141 44.4531 139.04 44.9758 139.04C45.6798 139.04 46.3091 139.189 46.8638 139.488C47.4184 139.787 47.8451 140.219 48.1438 140.784C48.4104 140.251 48.8264 139.829 49.3918 139.52C49.9571 139.2 50.5651 139.04 51.2158 139.04Z" fill="#8D9CF0"/>
<line x1="68.75" y1="2" x2="68.75" y2="358" stroke="#8D9CF0" stroke-width="1.5"/>
<line x1="68" y1="357.25" x2="78" y2="357.25" stroke="#8D9CF0" stroke-width="1.5"/>
<line x1="68" y1="1.25" x2="78" y2="1.25" stroke="#8D9CF0" stroke-width="1.5"/>
</svg>
