<svg width="264" height="48" viewBox="0 0 264 48" fill="none" xmlns="http://www.w3.org/2000/svg">
<path d="M106.72 8V6.336H110.048V18H108.208V8H106.72ZM112.554 12.016C112.554 10.1707 112.863 8.73067 113.482 7.696C114.111 6.65067 115.188 6.128 116.714 6.128C118.239 6.128 119.311 6.65067 119.93 7.696C120.559 8.73067 120.874 10.1707 120.874 12.016C120.874 13.8827 120.559 15.344 119.93 16.4C119.311 17.4453 118.239 17.968 116.714 17.968C115.188 17.968 114.111 17.4453 113.482 16.4C112.863 15.344 112.554 13.8827 112.554 12.016ZM119.082 12.016C119.082 11.152 119.023 10.4213 118.906 9.824C118.799 9.22667 118.575 8.74133 118.234 8.368C117.892 7.984 117.386 7.792 116.714 7.792C116.042 7.792 115.535 7.984 115.194 8.368C114.852 8.74133 114.623 9.22667 114.506 9.824C114.399 10.4213 114.346 11.152 114.346 12.016C114.346 12.912 114.399 13.664 114.506 14.272C114.612 14.88 114.836 15.3707 115.178 15.744C115.53 16.1173 116.042 16.304 116.714 16.304C117.386 16.304 117.892 16.1173 118.234 15.744C118.586 15.3707 118.815 14.88 118.922 14.272C119.028 13.664 119.082 12.912 119.082 12.016ZM125.044 15.808L123.108 20.224H121.924L123.06 15.808H125.044ZM132.67 9.04C132.552 8.54933 132.339 8.18133 132.03 7.936C131.72 7.69067 131.288 7.568 130.734 7.568C129.891 7.568 129.262 7.89333 128.846 8.544C128.43 9.184 128.211 10.2507 128.19 11.744C128.467 11.2747 128.872 10.912 129.406 10.656C129.939 10.4 130.515 10.272 131.134 10.272C131.838 10.272 132.456 10.4267 132.99 10.736C133.534 11.0347 133.955 11.472 134.253 12.048C134.563 12.624 134.718 13.312 134.718 14.112C134.718 14.8587 134.568 15.5253 134.27 16.112C133.982 16.6987 133.55 17.1627 132.974 17.504C132.398 17.8347 131.704 18 130.894 18C129.795 18 128.931 17.76 128.302 17.28C127.683 16.7893 127.246 16.1013 126.99 15.216C126.744 14.3307 126.622 13.2267 126.622 11.904C126.622 8 127.998 6.048 130.75 6.048C131.816 6.048 132.654 6.336 133.262 6.912C133.88 7.488 134.243 8.19733 134.35 9.04H132.67ZM130.734 11.808C130.083 11.808 129.528 12.0053 129.07 12.4C128.622 12.784 128.398 13.344 128.398 14.08C128.398 14.816 128.606 15.4027 129.022 15.84C129.448 16.2667 130.04 16.48 130.798 16.48C131.47 16.48 131.998 16.272 132.382 15.856C132.776 15.44 132.974 14.8853 132.974 14.192C132.974 13.4667 132.782 12.8907 132.398 12.464C132.024 12.0267 131.47 11.808 130.734 11.808ZM136.295 13.584C136.295 12.6773 136.476 11.8827 136.839 11.2C137.212 10.5067 137.724 9.97333 138.375 9.6C139.026 9.22667 139.772 9.04 140.615 9.04C141.682 9.04 142.562 9.296 143.255 9.808C143.959 10.3093 144.434 11.0293 144.679 11.968H142.711C142.551 11.5307 142.295 11.1893 141.943 10.944C141.591 10.6987 141.148 10.576 140.615 10.576C139.868 10.576 139.271 10.8427 138.823 11.376C138.386 11.8987 138.167 12.6347 138.167 13.584C138.167 14.5333 138.386 15.2747 138.823 15.808C139.271 16.3413 139.868 16.608 140.615 16.608C141.671 16.608 142.37 16.144 142.711 15.216H144.679C144.423 16.112 143.943 16.8267 143.239 17.36C142.535 17.8827 141.66 18.144 140.615 18.144C139.772 18.144 139.026 17.9573 138.375 17.584C137.724 17.2 137.212 16.6667 136.839 15.984C136.476 15.2907 136.295 14.4907 136.295 13.584ZM157.169 9.04C157.862 9.04 158.481 9.184 159.025 9.472C159.58 9.76 160.012 10.1867 160.321 10.752C160.641 11.3173 160.801 12 160.801 12.8V18H158.993V13.072C158.993 12.2827 158.796 11.68 158.401 11.264C158.006 10.8373 157.468 10.624 156.785 10.624C156.102 10.624 155.558 10.8373 155.153 11.264C154.758 11.68 154.561 12.2827 154.561 13.072V18H152.753V13.072C152.753 12.2827 152.556 11.68 152.161 11.264C151.766 10.8373 151.228 10.624 150.545 10.624C149.862 10.624 149.318 10.8373 148.913 11.264C148.518 11.68 148.321 12.2827 148.321 13.072V18H146.497V9.184H148.321V10.192C148.62 9.82933 148.998 9.54667 149.457 9.344C149.916 9.14133 150.406 9.04 150.929 9.04C151.633 9.04 152.262 9.18933 152.817 9.488C153.372 9.78667 153.798 10.2187 154.097 10.784C154.364 10.2507 154.78 9.82933 155.345 9.52C155.91 9.2 156.518 9.04 157.169 9.04Z" fill="#8D9CF0"/>
<line x1="262" y1="38.75" x2="-3.27835e-08" y2="38.75" stroke="#8D9CF0" stroke-width="1.5"/>
<line x1="0.75" y1="38" x2="0.75" y2="48" stroke="#8D9CF0" stroke-width="1.5"/>
<line x1="262.75" y1="38" x2="262.75" y2="48" stroke="#8D9CF0" stroke-width="1.5"/>
</svg>
